<?xml version="1.0" ?>
<svg xmlns="http://www.w3.org/2000/svg" viewBox="200 200 1600 1600">
	<path d="M 984,472 L 983,473 L 979,473 L 978,474 L 974,474 L 973,475 L 972,475 L 971,476 L 967,476 L 966,477 L 965,477 L 964,478 L 959,478 L 958,479 L 956,479 L 954,481 L 951,481 L 951,482 L 950,483 L 947,483 L 947,484 L 946,485 L 943,485 L 943,486 L 942,487 L 941,487 L 941,488 L 940,489 L 938,489 L 938,490 L 937,491 L 935,491 L 935,492 L 934,493 L 931,493 L 931,494 L 930,495 L 929,495 L 927,497 L 926,497 L 924,499 L 923,499 L 923,500 L 922,501 L 921,501 L 921,502 L 920,503 L 919,503 L 919,504 L 918,505 L 917,505 L 917,506 L 916,507 L 915,507 L 915,508 L 914,509 L 913,509 L 913,510 L 912,511 L 911,511 L 911,512 L 910,513 L 909,513 L 909,515 L 907,517 L 907,518 L 906,519 L 905,519 L 905,521 L 904,522 L 903,522 L 903,523 L 901,525 L 901,527 L 900,528 L 900,529 L 897,532 L 897,533 L 896,534 L 896,535 L 895,536 L 895,537 L 894,538 L 894,541 L 893,542 L 892,542 L 892,546 L 890,548 L 890,552 L 888,554 L 888,559 L 887,560 L 887,561 L 886,562 L 886,570 L 885,571 L 885,573 L 884,574 L 884,595 L 885,596 L 885,598 L 886,599 L 886,611 L 887,612 L 887,613 L 888,614 L 888,619 L 889,619 L 890,620 L 890,623 L 892,625 L 892,629 L 893,629 L 894,630 L 894,633 L 895,634 L 895,635 L 896,636 L 896,637 L 897,637 L 898,638 L 898,639 L 899,640 L 899,643 L 900,643 L 901,644 L 901,645 L 903,647 L 903,649 L 905,651 L 905,652 L 906,652 L 907,653 L 907,654 L 908,654 L 909,655 L 909,658 L 910,658 L 911,659 L 911,660 L 912,660 L 913,661 L 913,662 L 914,662 L 915,663 L 915,664 L 916,664 L 917,665 L 917,666 L 918,667 L 918,668 L 920,668 L 921,669 L 921,670 L 922,670 L 923,671 L 923,672 L 924,672 L 925,673 L 925,674 L 926,674 L 927,675 L 927,676 L 930,676 L 931,677 L 931,678 L 932,678 L 933,679 L 933,680 L 936,680 L 937,681 L 937,682 L 938,682 L 940,684 L 942,684 L 943,685 L 944,685 L 945,686 L 946,686 L 948,688 L 949,688 L 950,689 L 951,689 L 952,690 L 953,690 L 954,691 L 957,691 L 958,692 L 959,692 L 960,693 L 961,693 L 962,694 L 962,695 L 963,695 L 964,696 L 964,729 L 963,730 L 963,734 L 962,735 L 962,794 L 960,796 L 960,799 L 957,802 L 956,802 L 955,803 L 954,803 L 953,804 L 948,804 L 946,806 L 942,806 L 941,807 L 940,807 L 939,808 L 935,808 L 934,809 L 932,809 L 931,810 L 930,810 L 929,811 L 928,811 L 927,812 L 925,812 L 924,813 L 921,813 L 919,815 L 915,815 L 915,816 L 914,817 L 911,817 L 911,818 L 910,819 L 907,819 L 907,820 L 906,821 L 902,821 L 903,822 L 902,823 L 898,823 L 898,824 L 897,825 L 895,825 L 895,826 L 894,827 L 892,827 L 892,828 L 891,829 L 889,829 L 889,830 L 888,831 L 886,831 L 886,832 L 885,833 L 884,833 L 882,835 L 881,835 L 879,837 L 878,837 L 876,839 L 875,839 L 871,843 L 870,843 L 870,844 L 869,845 L 868,845 L 868,846 L 867,847 L 866,847 L 866,848 L 865,849 L 864,849 L 864,850 L 861,853 L 860,853 L 860,854 L 859,855 L 858,855 L 855,858 L 855,859 L 854,860 L 853,860 L 853,861 L 852,862 L 851,862 L 851,863 L 850,864 L 849,864 L 849,865 L 848,866 L 847,866 L 847,867 L 846,868 L 845,868 L 845,869 L 844,870 L 843,870 L 843,871 L 842,872 L 841,872 L 841,873 L 840,874 L 839,874 L 839,875 L 837,877 L 837,879 L 836,880 L 835,880 L 835,881 L 834,882 L 833,882 L 833,884 L 832,885 L 831,885 L 831,887 L 830,888 L 829,888 L 829,891 L 828,892 L 827,892 L 827,893 L 826,894 L 825,894 L 825,896 L 824,897 L 823,897 L 823,900 L 822,901 L 821,901 L 821,904 L 820,905 L 819,905 L 819,907 L 817,909 L 817,910 L 816,911 L 816,912 L 815,913 L 815,916 L 814,917 L 814,918 L 813,919 L 813,920 L 812,921 L 812,924 L 811,925 L 811,926 L 810,927 L 810,930 L 808,932 L 808,936 L 807,937 L 807,938 L 806,939 L 806,942 L 804,944 L 804,948 L 802,950 L 802,955 L 801,956 L 801,957 L 800,958 L 800,967 L 798,969 L 798,987 L 797,988 L 797,992 L 796,993 L 796,1005 L 797,1006 L 797,1007 L 798,1008 L 798,1014 L 797,1015 L 797,1016 L 796,1017 L 796,1020 L 795,1021 L 794,1021 L 793,1022 L 791,1022 L 791,1023 L 790,1024 L 785,1024 L 785,1025 L 784,1026 L 779,1026 L 779,1027 L 778,1028 L 774,1028 L 774,1029 L 773,1030 L 769,1030 L 769,1031 L 768,1032 L 765,1032 L 765,1033 L 764,1034 L 759,1034 L 759,1035 L 758,1036 L 754,1036 L 752,1038 L 746,1038 L 746,1039 L 745,1040 L 739,1040 L 739,1041 L 738,1042 L 731,1042 L 729,1044 L 725,1044 L 723,1046 L 719,1046 L 719,1047 L 718,1048 L 714,1048 L 714,1049 L 713,1050 L 708,1050 L 708,1051 L 707,1052 L 703,1052 L 701,1054 L 697,1054 L 695,1056 L 693,1056 L 692,1057 L 691,1057 L 690,1058 L 687,1058 L 686,1059 L 684,1059 L 683,1060 L 682,1059 L 681,1059 L 680,1058 L 679,1058 L 678,1057 L 678,1055 L 676,1053 L 676,1050 L 675,1050 L 674,1049 L 674,1048 L 673,1048 L 672,1047 L 672,1046 L 671,1046 L 670,1045 L 670,1044 L 669,1044 L 668,1043 L 668,1042 L 667,1042 L 666,1041 L 666,1040 L 665,1040 L 664,1039 L 664,1038 L 663,1038 L 659,1034 L 657,1034 L 656,1033 L 656,1032 L 655,1032 L 654,1031 L 654,1030 L 653,1030 L 652,1029 L 652,1028 L 651,1028 L 650,1027 L 650,1026 L 647,1026 L 646,1025 L 646,1024 L 645,1024 L 643,1022 L 642,1022 L 640,1020 L 639,1020 L 638,1019 L 637,1019 L 636,1018 L 635,1018 L 634,1017 L 633,1017 L 631,1015 L 630,1015 L 629,1014 L 628,1014 L 627,1013 L 625,1013 L 623,1011 L 620,1011 L 618,1009 L 614,1009 L 612,1007 L 606,1007 L 604,1005 L 596,1005 L 595,1004 L 593,1004 L 592,1003 L 563,1003 L 562,1004 L 560,1004 L 559,1005 L 552,1005 L 550,1007 L 546,1007 L 544,1009 L 541,1009 L 539,1011 L 537,1011 L 535,1013 L 533,1013 L 531,1015 L 529,1015 L 527,1017 L 526,1017 L 525,1018 L 524,1018 L 523,1019 L 522,1019 L 521,1020 L 520,1020 L 518,1022 L 517,1022 L 517,1023 L 516,1024 L 515,1024 L 515,1025 L 514,1026 L 511,1026 L 511,1027 L 510,1028 L 509,1028 L 509,1029 L 508,1030 L 507,1030 L 507,1031 L 506,1032 L 505,1032 L 505,1033 L 504,1034 L 503,1034 L 503,1035 L 502,1036 L 501,1036 L 501,1037 L 500,1038 L 499,1038 L 499,1039 L 498,1040 L 497,1040 L 497,1041 L 496,1042 L 495,1042 L 495,1043 L 494,1044 L 493,1044 L 493,1047 L 492,1048 L 491,1048 L 491,1049 L 490,1050 L 489,1050 L 489,1051 L 488,1052 L 487,1052 L 487,1054 L 485,1056 L 485,1057 L 483,1059 L 483,1061 L 481,1063 L 481,1064 L 480,1065 L 480,1066 L 479,1067 L 479,1068 L 478,1069 L 478,1072 L 476,1074 L 476,1077 L 474,1079 L 474,1082 L 473,1083 L 473,1084 L 472,1085 L 472,1092 L 471,1093 L 471,1094 L 470,1095 L 470,1108 L 469,1109 L 469,1112 L 468,1113 L 468,1128 L 469,1129 L 469,1132 L 470,1133 L 470,1144 L 471,1145 L 471,1146 L 472,1147 L 472,1152 L 474,1154 L 474,1158 L 475,1159 L 475,1160 L 476,1161 L 476,1163 L 478,1165 L 478,1168 L 479,1169 L 479,1170 L 480,1171 L 480,1172 L 481,1173 L 481,1175 L 483,1177 L 483,1178 L 484,1179 L 484,1180 L 485,1181 L 485,1183 L 489,1187 L 489,1188 L 490,1188 L 491,1189 L 491,1191 L 492,1191 L 493,1192 L 493,1194 L 494,1194 L 495,1195 L 495,1196 L 501,1202 L 501,1203 L 502,1203 L 503,1204 L 503,1205 L 505,1205 L 506,1206 L 506,1207 L 508,1207 L 509,1208 L 509,1209 L 511,1209 L 512,1210 L 512,1211 L 514,1211 L 515,1212 L 515,1213 L 516,1213 L 517,1214 L 517,1215 L 520,1215 L 521,1216 L 521,1217 L 524,1217 L 525,1218 L 525,1219 L 527,1219 L 528,1220 L 527,1221 L 530,1221 L 531,1222 L 531,1223 L 534,1223 L 535,1224 L 535,1225 L 539,1225 L 540,1226 L 540,1227 L 543,1227 L 544,1228 L 545,1228 L 546,1229 L 549,1229 L 550,1230 L 556,1230 L 557,1231 L 563,1231 L 564,1232 L 573,1232 L 574,1233 L 583,1233 L 584,1232 L 594,1232 L 595,1231 L 600,1231 L 601,1230 L 606,1230 L 607,1229 L 612,1229 L 613,1228 L 614,1228 L 615,1227 L 618,1227 L 620,1225 L 623,1225 L 623,1224 L 624,1223 L 629,1223 L 629,1222 L 630,1221 L 632,1221 L 634,1219 L 636,1219 L 636,1218 L 637,1217 L 639,1217 L 639,1216 L 640,1215 L 643,1215 L 643,1214 L 644,1213 L 645,1213 L 645,1212 L 646,1211 L 648,1211 L 648,1210 L 649,1209 L 651,1209 L 653,1207 L 654,1207 L 656,1205 L 657,1205 L 657,1204 L 658,1203 L 659,1203 L 660,1202 L 660,1201 L 662,1199 L 663,1199 L 666,1196 L 666,1195 L 667,1194 L 668,1194 L 668,1192 L 669,1191 L 670,1191 L 670,1190 L 672,1188 L 672,1187 L 673,1186 L 674,1186 L 674,1185 L 675,1184 L 676,1184 L 676,1181 L 677,1180 L 678,1180 L 678,1179 L 681,1176 L 681,1175 L 682,1174 L 682,1173 L 683,1172 L 683,1171 L 684,1170 L 684,1167 L 686,1165 L 686,1163 L 688,1161 L 688,1160 L 689,1159 L 689,1157 L 690,1156 L 690,1155 L 691,1154 L 691,1149 L 693,1147 L 693,1144 L 695,1142 L 695,1138 L 696,1137 L 696,1136 L 697,1135 L 697,1130 L 698,1129 L 703,1129 L 705,1127 L 710,1127 L 710,1126 L 711,1125 L 714,1125 L 716,1123 L 719,1123 L 719,1122 L 720,1121 L 726,1121 L 728,1119 L 732,1119 L 734,1117 L 738,1117 L 740,1115 L 743,1115 L 744,1114 L 745,1114 L 746,1113 L 750,1113 L 751,1112 L 752,1112 L 753,1111 L 757,1111 L 758,1110 L 759,1110 L 760,1109 L 762,1109 L 763,1108 L 764,1108 L 765,1107 L 767,1107 L 768,1106 L 770,1106 L 771,1105 L 774,1105 L 775,1104 L 778,1104 L 780,1102 L 783,1102 L 785,1100 L 788,1100 L 788,1099 L 789,1098 L 795,1098 L 795,1097 L 796,1096 L 800,1096 L 800,1095 L 801,1094 L 804,1094 L 804,1093 L 805,1092 L 809,1092 L 809,1091 L 810,1090 L 817,1090 L 818,1091 L 818,1092 L 820,1092 L 821,1093 L 821,1096 L 822,1096 L 823,1097 L 823,1100 L 825,1102 L 825,1103 L 826,1103 L 827,1104 L 827,1107 L 828,1107 L 829,1108 L 829,1109 L 831,1111 L 831,1113 L 832,1113 L 833,1114 L 833,1115 L 835,1117 L 835,1119 L 836,1119 L 837,1120 L 837,1121 L 838,1121 L 839,1122 L 839,1123 L 840,1124 L 840,1125 L 843,1128 L 843,1129 L 844,1129 L 845,1130 L 845,1131 L 846,1131 L 847,1132 L 847,1133 L 848,1133 L 849,1134 L 849,1135 L 850,1135 L 851,1136 L 851,1137 L 852,1137 L 853,1138 L 853,1139 L 856,1142 L 856,1143 L 857,1143 L 860,1146 L 861,1146 L 862,1147 L 862,1148 L 863,1148 L 864,1149 L 864,1150 L 865,1150 L 866,1151 L 866,1152 L 867,1152 L 873,1158 L 874,1158 L 876,1160 L 877,1160 L 878,1161 L 878,1162 L 880,1162 L 881,1163 L 881,1164 L 883,1164 L 884,1165 L 884,1166 L 885,1166 L 886,1167 L 886,1168 L 888,1168 L 889,1169 L 889,1170 L 891,1170 L 892,1171 L 892,1172 L 893,1172 L 895,1174 L 897,1174 L 898,1175 L 898,1176 L 900,1176 L 901,1177 L 901,1178 L 904,1178 L 905,1179 L 905,1180 L 907,1180 L 908,1181 L 908,1182 L 911,1182 L 913,1184 L 917,1184 L 919,1186 L 921,1186 L 922,1187 L 924,1187 L 925,1188 L 926,1188 L 927,1189 L 929,1189 L 930,1190 L 931,1190 L 932,1191 L 936,1191 L 937,1192 L 938,1192 L 939,1193 L 942,1193 L 943,1194 L 944,1194 L 945,1195 L 949,1195 L 951,1197 L 959,1197 L 960,1198 L 961,1198 L 962,1199 L 978,1199 L 979,1200 L 984,1200 L 985,1201 L 999,1201 L 1000,1200 L 1007,1200 L 1008,1199 L 1025,1199 L 1026,1198 L 1028,1198 L 1029,1197 L 1037,1197 L 1038,1196 L 1039,1196 L 1040,1195 L 1045,1195 L 1047,1193 L 1051,1193 L 1052,1192 L 1054,1192 L 1055,1191 L 1059,1191 L 1060,1190 L 1063,1190 L 1064,1189 L 1066,1189 L 1067,1188 L 1070,1188 L 1072,1186 L 1075,1186 L 1077,1184 L 1080,1184 L 1080,1183 L 1081,1182 L 1082,1182 L 1083,1183 L 1083,1184 L 1085,1184 L 1086,1185 L 1087,1185 L 1089,1187 L 1089,1188 L 1091,1190 L 1091,1191 L 1092,1191 L 1093,1192 L 1093,1193 L 1094,1193 L 1095,1194 L 1095,1195 L 1096,1195 L 1097,1196 L 1097,1199 L 1098,1199 L 1099,1200 L 1099,1201 L 1100,1201 L 1103,1204 L 1103,1205 L 1104,1205 L 1105,1206 L 1105,1207 L 1107,1209 L 1108,1209 L 1109,1210 L 1109,1211 L 1112,1214 L 1112,1215 L 1113,1216 L 1113,1217 L 1114,1217 L 1115,1218 L 1115,1219 L 1118,1222 L 1118,1223 L 1119,1223 L 1120,1224 L 1120,1226 L 1121,1226 L 1122,1227 L 1122,1228 L 1123,1228 L 1124,1229 L 1124,1230 L 1126,1232 L 1126,1233 L 1127,1233 L 1128,1234 L 1128,1236 L 1129,1236 L 1130,1237 L 1130,1238 L 1132,1240 L 1133,1240 L 1134,1241 L 1134,1243 L 1136,1245 L 1136,1246 L 1137,1246 L 1138,1247 L 1138,1248 L 1139,1248 L 1140,1249 L 1140,1250 L 1141,1250 L 1142,1251 L 1142,1252 L 1143,1253 L 1143,1254 L 1144,1255 L 1144,1256 L 1145,1256 L 1146,1257 L 1146,1258 L 1147,1258 L 1148,1259 L 1148,1260 L 1149,1260 L 1150,1261 L 1150,1262 L 1151,1263 L 1151,1264 L 1152,1264 L 1153,1265 L 1153,1266 L 1154,1266 L 1155,1267 L 1155,1268 L 1159,1272 L 1159,1273 L 1160,1273 L 1161,1274 L 1161,1275 L 1162,1275 L 1163,1276 L 1163,1277 L 1164,1277 L 1167,1280 L 1167,1284 L 1168,1285 L 1167,1286 L 1167,1287 L 1165,1289 L 1165,1290 L 1163,1292 L 1162,1292 L 1161,1293 L 1161,1295 L 1160,1296 L 1159,1296 L 1159,1299 L 1157,1301 L 1157,1305 L 1156,1306 L 1155,1306 L 1155,1311 L 1154,1312 L 1153,1311 L 1153,1316 L 1151,1318 L 1151,1324 L 1149,1326 L 1149,1335 L 1148,1336 L 1148,1339 L 1147,1340 L 1147,1354 L 1148,1355 L 1148,1357 L 1149,1358 L 1149,1370 L 1150,1369 L 1151,1370 L 1151,1378 L 1153,1380 L 1153,1385 L 1154,1385 L 1155,1386 L 1155,1389 L 1156,1389 L 1157,1390 L 1157,1393 L 1159,1395 L 1159,1398 L 1160,1398 L 1161,1399 L 1161,1402 L 1162,1402 L 1163,1403 L 1163,1404 L 1164,1404 L 1165,1405 L 1165,1408 L 1166,1408 L 1167,1409 L 1167,1412 L 1168,1412 L 1169,1413 L 1169,1414 L 1170,1414 L 1171,1415 L 1171,1416 L 1172,1417 L 1172,1418 L 1173,1419 L 1173,1420 L 1174,1420 L 1175,1421 L 1175,1422 L 1176,1422 L 1177,1423 L 1177,1424 L 1178,1425 L 1178,1426 L 1180,1428 L 1181,1428 L 1182,1429 L 1182,1430 L 1183,1431 L 1183,1432 L 1184,1432 L 1186,1434 L 1187,1434 L 1189,1436 L 1190,1436 L 1195,1441 L 1196,1441 L 1198,1443 L 1199,1443 L 1201,1445 L 1203,1445 L 1204,1446 L 1204,1447 L 1205,1447 L 1207,1449 L 1208,1449 L 1210,1451 L 1213,1451 L 1214,1452 L 1214,1453 L 1217,1453 L 1218,1454 L 1218,1455 L 1221,1455 L 1223,1457 L 1232,1457 L 1234,1459 L 1246,1459 L 1247,1460 L 1247,1461 L 1282,1461 L 1284,1459 L 1294,1459 L 1296,1457 L 1304,1457 L 1306,1455 L 1311,1455 L 1313,1453 L 1316,1453 L 1318,1451 L 1320,1451 L 1321,1450 L 1322,1450 L 1323,1449 L 1324,1449 L 1326,1447 L 1327,1447 L 1329,1445 L 1330,1445 L 1332,1443 L 1333,1443 L 1335,1441 L 1336,1441 L 1339,1438 L 1340,1438 L 1340,1437 L 1341,1436 L 1342,1436 L 1344,1434 L 1345,1434 L 1349,1430 L 1349,1429 L 1350,1428 L 1351,1428 L 1351,1427 L 1352,1426 L 1353,1426 L 1353,1425 L 1354,1424 L 1355,1424 L 1355,1423 L 1356,1422 L 1356,1421 L 1359,1418 L 1359,1417 L 1360,1416 L 1361,1416 L 1361,1415 L 1364,1412 L 1364,1411 L 1365,1410 L 1365,1407 L 1368,1404 L 1368,1403 L 1369,1402 L 1369,1401 L 1370,1400 L 1370,1399 L 1371,1398 L 1371,1397 L 1372,1396 L 1372,1395 L 1373,1394 L 1373,1390 L 1375,1388 L 1375,1383 L 1377,1381 L 1377,1374 L 1378,1373 L 1379,1373 L 1379,1364 L 1381,1362 L 1381,1329 L 1380,1328 L 1380,1327 L 1379,1326 L 1379,1318 L 1377,1316 L 1377,1310 L 1376,1310 L 1375,1309 L 1375,1304 L 1374,1304 L 1373,1303 L 1373,1297 L 1371,1295 L 1371,1293 L 1369,1291 L 1369,1290 L 1368,1290 L 1367,1289 L 1367,1288 L 1366,1287 L 1366,1286 L 1365,1285 L 1365,1284 L 1364,1284 L 1363,1283 L 1363,1282 L 1362,1281 L 1362,1280 L 1359,1277 L 1359,1276 L 1358,1276 L 1357,1275 L 1357,1274 L 1354,1271 L 1354,1270 L 1353,1269 L 1352,1269 L 1350,1267 L 1350,1266 L 1347,1263 L 1346,1263 L 1344,1261 L 1343,1261 L 1342,1260 L 1342,1259 L 1341,1259 L 1339,1257 L 1338,1257 L 1337,1256 L 1337,1255 L 1335,1255 L 1334,1254 L 1334,1253 L 1333,1253 L 1332,1252 L 1332,1251 L 1330,1251 L 1328,1249 L 1327,1249 L 1326,1248 L 1326,1247 L 1323,1247 L 1322,1246 L 1322,1245 L 1319,1245 L 1318,1244 L 1318,1243 L 1315,1243 L 1314,1242 L 1314,1241 L 1311,1241 L 1310,1240 L 1310,1239 L 1305,1239 L 1304,1238 L 1304,1237 L 1299,1237 L 1298,1236 L 1298,1235 L 1293,1235 L 1292,1234 L 1292,1233 L 1284,1233 L 1282,1231 L 1253,1231 L 1251,1233 L 1242,1233 L 1242,1234 L 1241,1235 L 1233,1235 L 1233,1236 L 1232,1237 L 1227,1237 L 1227,1238 L 1226,1239 L 1221,1239 L 1220,1238 L 1220,1237 L 1219,1236 L 1219,1235 L 1218,1235 L 1217,1234 L 1217,1231 L 1216,1231 L 1215,1230 L 1215,1229 L 1213,1227 L 1213,1226 L 1212,1226 L 1211,1225 L 1211,1224 L 1210,1224 L 1209,1223 L 1209,1221 L 1208,1221 L 1207,1220 L 1207,1218 L 1206,1218 L 1205,1217 L 1205,1216 L 1203,1214 L 1202,1214 L 1201,1213 L 1201,1210 L 1200,1210 L 1199,1209 L 1199,1208 L 1198,1208 L 1197,1207 L 1197,1206 L 1196,1206 L 1195,1205 L 1195,1204 L 1194,1204 L 1193,1203 L 1193,1202 L 1192,1202 L 1191,1201 L 1191,1200 L 1190,1199 L 1190,1198 L 1189,1198 L 1188,1197 L 1188,1196 L 1187,1195 L 1187,1194 L 1186,1194 L 1185,1193 L 1185,1192 L 1182,1189 L 1182,1188 L 1181,1188 L 1180,1187 L 1180,1186 L 1179,1186 L 1178,1185 L 1178,1183 L 1177,1183 L 1176,1182 L 1176,1181 L 1175,1181 L 1174,1180 L 1174,1179 L 1170,1175 L 1170,1174 L 1168,1172 L 1168,1171 L 1167,1171 L 1166,1170 L 1166,1169 L 1162,1165 L 1162,1163 L 1161,1163 L 1160,1162 L 1160,1161 L 1159,1160 L 1159,1159 L 1158,1159 L 1157,1158 L 1157,1157 L 1156,1156 L 1156,1155 L 1155,1155 L 1154,1154 L 1154,1153 L 1153,1152 L 1153,1151 L 1146,1144 L 1146,1139 L 1145,1138 L 1145,1137 L 1147,1135 L 1147,1134 L 1148,1133 L 1150,1133 L 1150,1132 L 1151,1131 L 1152,1131 L 1152,1130 L 1153,1129 L 1154,1129 L 1154,1128 L 1155,1127 L 1155,1126 L 1156,1125 L 1157,1125 L 1157,1124 L 1158,1123 L 1159,1123 L 1161,1121 L 1161,1120 L 1162,1119 L 1162,1118 L 1166,1114 L 1166,1113 L 1168,1111 L 1168,1110 L 1170,1108 L 1170,1106 L 1171,1105 L 1172,1105 L 1172,1104 L 1174,1102 L 1174,1101 L 1176,1099 L 1176,1097 L 1178,1095 L 1178,1093 L 1179,1092 L 1180,1092 L 1180,1091 L 1181,1090 L 1181,1089 L 1182,1088 L 1182,1087 L 1183,1086 L 1183,1085 L 1184,1084 L 1184,1081 L 1185,1080 L 1185,1079 L 1186,1078 L 1186,1077 L 1187,1076 L 1187,1075 L 1188,1074 L 1188,1072 L 1189,1071 L 1189,1069 L 1190,1068 L 1190,1067 L 1191,1066 L 1191,1063 L 1192,1062 L 1192,1061 L 1193,1060 L 1193,1056 L 1194,1055 L 1194,1054 L 1195,1053 L 1195,1050 L 1196,1049 L 1196,1048 L 1197,1047 L 1197,1042 L 1198,1041 L 1198,1040 L 1199,1039 L 1199,1025 L 1200,1024 L 1200,1023 L 1201,1022 L 1201,968 L 1202,967 L 1203,967 L 1203,966 L 1204,965 L 1205,965 L 1205,964 L 1206,963 L 1210,963 L 1212,961 L 1216,961 L 1216,960 L 1217,959 L 1224,959 L 1224,958 L 1225,957 L 1231,957 L 1233,955 L 1240,955 L 1242,953 L 1247,953 L 1247,952 L 1248,951 L 1251,951 L 1253,949 L 1257,949 L 1258,948 L 1259,948 L 1260,947 L 1263,947 L 1264,946 L 1265,946 L 1266,945 L 1269,945 L 1271,943 L 1273,943 L 1274,942 L 1275,942 L 1276,941 L 1280,941 L 1281,940 L 1284,940 L 1285,939 L 1286,939 L 1287,938 L 1289,938 L 1291,936 L 1293,936 L 1295,934 L 1300,934 L 1300,933 L 1301,932 L 1306,932 L 1306,931 L 1307,930 L 1311,930 L 1311,929 L 1312,928 L 1315,928 L 1315,927 L 1316,926 L 1322,926 L 1322,925 L 1323,924 L 1332,924 L 1333,925 L 1333,926 L 1334,926 L 1335,927 L 1335,928 L 1336,928 L 1337,929 L 1337,930 L 1338,930 L 1339,931 L 1339,933 L 1341,935 L 1342,935 L 1343,936 L 1343,937 L 1344,937 L 1345,938 L 1345,939 L 1346,939 L 1347,940 L 1347,941 L 1348,941 L 1349,942 L 1349,943 L 1350,943 L 1352,945 L 1353,945 L 1354,946 L 1354,947 L 1355,947 L 1357,949 L 1359,949 L 1360,950 L 1360,951 L 1361,951 L 1365,955 L 1367,955 L 1368,956 L 1368,957 L 1371,957 L 1373,959 L 1376,959 L 1377,960 L 1377,961 L 1381,961 L 1382,962 L 1382,963 L 1386,963 L 1387,964 L 1387,965 L 1395,965 L 1396,966 L 1396,967 L 1405,967 L 1406,968 L 1406,969 L 1435,969 L 1435,968 L 1436,967 L 1447,967 L 1447,966 L 1448,965 L 1457,965 L 1457,964 L 1458,963 L 1463,963 L 1463,962 L 1464,961 L 1467,961 L 1469,959 L 1472,959 L 1472,958 L 1473,957 L 1477,957 L 1479,955 L 1481,955 L 1483,953 L 1484,953 L 1486,951 L 1488,951 L 1490,949 L 1491,949 L 1493,947 L 1494,947 L 1494,946 L 1495,945 L 1496,945 L 1500,941 L 1501,941 L 1506,936 L 1506,935 L 1507,934 L 1508,934 L 1508,933 L 1509,932 L 1510,932 L 1510,931 L 1511,930 L 1512,930 L 1512,929 L 1513,928 L 1513,927 L 1514,926 L 1514,925 L 1515,924 L 1516,924 L 1516,923 L 1519,920 L 1519,919 L 1520,918 L 1520,917 L 1521,916 L 1521,915 L 1522,914 L 1522,913 L 1523,912 L 1523,911 L 1524,910 L 1525,910 L 1525,908 L 1527,906 L 1527,904 L 1529,902 L 1529,898 L 1531,896 L 1531,895 L 1532,894 L 1532,893 L 1533,892 L 1533,888 L 1534,887 L 1534,886 L 1535,885 L 1535,880 L 1536,879 L 1536,878 L 1537,877 L 1537,864 L 1539,862 L 1539,852 L 1538,851 L 1538,849 L 1537,848 L 1537,828 L 1535,826 L 1535,821 L 1534,821 L 1533,820 L 1533,816 L 1531,814 L 1531,812 L 1529,810 L 1529,806 L 1528,806 L 1527,805 L 1527,802 L 1526,802 L 1525,801 L 1525,800 L 1524,799 L 1524,798 L 1523,797 L 1523,796 L 1522,796 L 1521,795 L 1521,792 L 1520,792 L 1519,791 L 1519,790 L 1518,790 L 1517,789 L 1517,788 L 1516,787 L 1516,786 L 1515,786 L 1514,785 L 1514,784 L 1513,783 L 1513,782 L 1512,782 L 1511,781 L 1511,780 L 1510,780 L 1509,779 L 1509,778 L 1505,774 L 1504,774 L 1498,768 L 1497,768 L 1496,767 L 1495,767 L 1492,764 L 1491,764 L 1488,761 L 1487,761 L 1486,760 L 1486,759 L 1484,759 L 1482,757 L 1481,757 L 1479,755 L 1477,755 L 1475,753 L 1473,753 L 1471,751 L 1468,751 L 1466,749 L 1463,749 L 1462,748 L 1462,747 L 1459,747 L 1457,745 L 1450,745 L 1449,744 L 1449,743 L 1438,743 L 1437,742 L 1437,741 L 1403,741 L 1403,742 L 1402,743 L 1393,743 L 1391,745 L 1386,745 L 1384,747 L 1381,747 L 1381,748 L 1380,749 L 1378,749 L 1378,750 L 1377,751 L 1374,751 L 1372,753 L 1370,753 L 1370,754 L 1369,755 L 1367,755 L 1367,756 L 1366,757 L 1364,757 L 1364,758 L 1363,759 L 1361,759 L 1361,760 L 1360,761 L 1358,761 L 1358,762 L 1357,763 L 1355,763 L 1355,764 L 1352,767 L 1351,767 L 1344,774 L 1343,774 L 1343,775 L 1342,776 L 1341,776 L 1341,777 L 1340,778 L 1339,778 L 1339,781 L 1338,782 L 1337,782 L 1337,783 L 1336,784 L 1335,784 L 1335,785 L 1334,786 L 1333,786 L 1333,787 L 1332,788 L 1331,788 L 1331,791 L 1330,792 L 1329,792 L 1329,793 L 1328,794 L 1327,794 L 1327,797 L 1326,798 L 1325,798 L 1325,799 L 1324,800 L 1323,800 L 1323,804 L 1322,805 L 1321,805 L 1321,809 L 1320,810 L 1319,809 L 1319,813 L 1318,814 L 1317,814 L 1317,818 L 1315,820 L 1315,826 L 1314,827 L 1314,829 L 1313,830 L 1313,834 L 1312,835 L 1312,841 L 1311,842 L 1311,846 L 1310,847 L 1310,850 L 1309,851 L 1309,852 L 1306,855 L 1305,855 L 1304,856 L 1301,856 L 1299,858 L 1296,858 L 1296,859 L 1295,860 L 1292,860 L 1292,861 L 1291,862 L 1286,862 L 1286,863 L 1285,864 L 1282,864 L 1282,865 L 1281,866 L 1277,866 L 1277,867 L 1276,868 L 1272,868 L 1272,869 L 1271,870 L 1264,870 L 1264,871 L 1263,872 L 1258,872 L 1258,873 L 1257,874 L 1253,874 L 1251,876 L 1247,876 L 1247,877 L 1246,878 L 1241,878 L 1241,879 L 1240,880 L 1237,880 L 1235,882 L 1232,882 L 1230,884 L 1226,884 L 1226,885 L 1225,886 L 1220,886 L 1218,888 L 1215,888 L 1213,890 L 1210,890 L 1208,892 L 1205,892 L 1204,893 L 1203,893 L 1202,894 L 1200,894 L 1199,895 L 1198,895 L 1197,896 L 1195,896 L 1194,897 L 1191,897 L 1191,898 L 1190,899 L 1187,899 L 1187,900 L 1186,901 L 1179,901 L 1178,900 L 1178,899 L 1178,900 L 1177,901 L 1176,900 L 1176,898 L 1174,896 L 1174,894 L 1173,894 L 1172,893 L 1172,892 L 1171,892 L 1170,891 L 1170,889 L 1168,887 L 1168,886 L 1167,886 L 1166,885 L 1166,884 L 1164,882 L 1164,880 L 1163,880 L 1162,879 L 1162,878 L 1161,878 L 1160,877 L 1160,876 L 1159,876 L 1158,875 L 1158,874 L 1155,871 L 1155,870 L 1154,870 L 1153,869 L 1153,868 L 1152,868 L 1151,867 L 1151,866 L 1150,866 L 1149,865 L 1149,864 L 1148,864 L 1147,863 L 1147,862 L 1146,862 L 1145,861 L 1145,860 L 1144,860 L 1143,859 L 1143,858 L 1142,858 L 1139,855 L 1139,854 L 1138,854 L 1137,853 L 1136,853 L 1135,852 L 1135,851 L 1134,851 L 1133,850 L 1133,849 L 1132,849 L 1131,848 L 1131,847 L 1130,847 L 1122,839 L 1121,839 L 1119,837 L 1118,837 L 1116,835 L 1115,835 L 1114,834 L 1114,833 L 1112,833 L 1111,832 L 1111,831 L 1109,831 L 1108,830 L 1108,829 L 1106,829 L 1105,828 L 1105,827 L 1102,827 L 1101,826 L 1101,825 L 1099,825 L 1098,824 L 1098,823 L 1095,823 L 1094,822 L 1095,821 L 1091,821 L 1090,820 L 1091,819 L 1087,819 L 1086,818 L 1086,817 L 1083,817 L 1081,815 L 1077,815 L 1075,813 L 1072,813 L 1071,812 L 1070,812 L 1069,811 L 1067,811 L 1066,810 L 1065,810 L 1064,809 L 1062,809 L 1061,808 L 1058,808 L 1057,807 L 1056,807 L 1055,806 L 1051,806 L 1050,805 L 1049,805 L 1048,804 L 1042,804 L 1040,802 L 1039,802 L 1037,800 L 1037,797 L 1036,796 L 1036,795 L 1035,794 L 1035,710 L 1036,709 L 1036,705 L 1037,704 L 1037,695 L 1039,693 L 1039,692 L 1040,691 L 1041,691 L 1042,690 L 1043,690 L 1044,689 L 1046,689 L 1047,688 L 1050,688 L 1050,687 L 1051,686 L 1053,686 L 1053,685 L 1054,684 L 1058,684 L 1058,683 L 1059,682 L 1060,682 L 1062,680 L 1063,680 L 1063,679 L 1064,678 L 1066,678 L 1066,677 L 1067,676 L 1069,676 L 1069,675 L 1070,674 L 1072,674 L 1072,673 L 1073,672 L 1074,672 L 1074,671 L 1077,668 L 1078,668 L 1080,666 L 1081,666 L 1082,665 L 1082,663 L 1083,662 L 1084,662 L 1084,661 L 1085,660 L 1086,660 L 1086,659 L 1087,658 L 1088,658 L 1088,657 L 1089,656 L 1090,656 L 1090,653 L 1091,652 L 1092,652 L 1092,651 L 1094,649 L 1094,647 L 1095,646 L 1096,647 L 1096,645 L 1097,644 L 1098,644 L 1098,642 L 1099,641 L 1099,640 L 1100,639 L 1100,638 L 1103,635 L 1103,634 L 1104,633 L 1104,632 L 1105,631 L 1105,628 L 1106,627 L 1106,626 L 1107,625 L 1107,622 L 1108,621 L 1109,621 L 1109,617 L 1110,616 L 1110,615 L 1111,614 L 1111,610 L 1112,609 L 1112,606 L 1113,605 L 1113,595 L 1114,594 L 1114,592 L 1115,591 L 1115,572 L 1114,571 L 1114,570 L 1113,569 L 1113,559 L 1112,558 L 1112,556 L 1111,555 L 1111,552 L 1110,551 L 1110,550 L 1109,549 L 1109,548 L 1108,547 L 1108,546 L 1107,545 L 1107,542 L 1106,541 L 1106,540 L 1105,539 L 1105,538 L 1104,537 L 1104,536 L 1103,535 L 1103,534 L 1102,533 L 1102,532 L 1101,532 L 1100,531 L 1100,528 L 1099,528 L 1098,527 L 1098,525 L 1096,523 L 1096,522 L 1095,522 L 1094,521 L 1094,520 L 1092,518 L 1092,517 L 1091,517 L 1090,516 L 1090,514 L 1088,512 L 1088,511 L 1087,511 L 1086,510 L 1086,509 L 1085,509 L 1084,508 L 1084,507 L 1083,507 L 1082,506 L 1082,505 L 1081,505 L 1080,504 L 1080,503 L 1079,503 L 1078,502 L 1078,501 L 1076,501 L 1074,499 L 1073,499 L 1072,498 L 1072,497 L 1071,497 L 1070,496 L 1070,495 L 1069,495 L 1068,494 L 1068,493 L 1065,493 L 1064,492 L 1064,491 L 1062,491 L 1061,490 L 1061,489 L 1059,489 L 1058,488 L 1058,487 L 1057,487 L 1056,486 L 1056,485 L 1053,485 L 1052,484 L 1052,483 L 1048,483 L 1047,482 L 1047,481 L 1044,481 L 1042,479 L 1040,479 L 1039,478 L 1036,478 L 1035,477 L 1033,477 L 1032,476 L 1028,476 L 1027,475 L 1025,475 L 1024,474 L 1020,474 L 1019,473 L 1015,473 L 1014,472 Z" style="fill:currentColor;stroke:none"/>
</svg>
